<svg width="24" height="25" viewBox="0 0 24 25" fill="none" xmlns="http://www.w3.org/2000/svg">
<g id="bxs:camera">
<path id="Vector" d="M12 9.0415C10.374 9.0415 9 10.4155 9 12.0415C9 13.6675 10.374 15.0415 12 15.0415C13.626 15.0415 15 13.6675 15 12.0415C15 10.4155 13.626 9.0415 12 9.0415Z" fill="white"/>
<path id="Vector_2" d="M20 5.0415H17.414L14.707 2.3345C14.6143 2.24146 14.5041 2.16767 14.3828 2.11739C14.2614 2.0671 14.1313 2.04131 14 2.0415H10C9.86866 2.04131 9.73857 2.0671 9.61724 2.11739C9.4959 2.16767 9.38571 2.24146 9.293 2.3345L6.586 5.0415H4C2.897 5.0415 2 5.9385 2 7.0415V18.0415C2 19.1445 2.897 20.0415 4 20.0415H20C21.103 20.0415 22 19.1445 22 18.0415V7.0415C22 5.9385 21.103 5.0415 20 5.0415ZM12 17.0415C9.29 17.0415 7 14.7515 7 12.0415C7 9.3315 9.29 7.0415 12 7.0415C14.71 7.0415 17 9.3315 17 12.0415C17 14.7515 14.71 17.0415 12 17.0415Z" fill="black"/>
</g>
</svg>
