<svg width="40" height="40" viewBox="0 0 40 40" fill="none" xmlns="http://www.w3.org/2000/svg">
<g id="Outline/Communication/Chat">
<g id="Icon">
<path d="M13.3332 15.8333C12.1826 15.8333 11.2498 16.766 11.2498 17.9166C11.2498 19.0672 12.1826 19.9999 13.3332 19.9999C14.4838 19.9999 15.4165 19.0672 15.4165 17.9166C15.4165 16.766 14.4838 15.8333 13.3332 15.8333Z" fill="black"/>
<path d="M19.9998 15.8333C18.8492 15.8333 17.9165 16.766 17.9165 17.9166C17.9165 19.0672 18.8492 19.9999 19.9998 19.9999C21.1504 19.9999 22.0832 19.0672 22.0832 17.9166C22.0832 16.766 21.1504 15.8333 19.9998 15.8333Z" fill="black"/>
<path d="M24.5832 17.9166C24.5832 16.766 25.5159 15.8333 26.6665 15.8333C27.8171 15.8333 28.7498 16.766 28.7498 17.9166C28.7498 19.0672 27.8171 19.9999 26.6665 19.9999C25.5159 19.9999 24.5832 19.0672 24.5832 17.9166Z" fill="black"/>
<path fill-rule="evenodd" clip-rule="evenodd" d="M26.8344 7.65459C22.3441 7.27166 17.8303 7.24944 13.3364 7.58814L13.0144 7.61241C8.72885 7.93541 5.4165 11.5068 5.4165 15.8045V29.9999C5.4165 30.4397 5.64761 30.8472 6.02508 31.0728C6.40256 31.2985 6.87085 31.3092 7.25823 31.101L13.7762 27.5982C14.0794 27.4352 14.4182 27.3499 14.7624 27.3499H29.7231C31.6099 27.3499 33.2269 26.001 33.5651 24.1447C34.2506 20.3826 34.3047 16.5327 33.7254 12.7529L33.5546 11.639C33.2438 9.61106 31.5848 8.05971 29.5406 7.88538L26.8344 7.65459ZM13.5243 10.0811C17.8849 9.75241 22.2648 9.77398 26.622 10.1456L29.3282 10.3763C30.2221 10.4526 30.9475 11.131 31.0835 12.0178L31.2542 13.1316C31.7915 16.6371 31.7413 20.2076 31.1056 23.6966C30.9839 24.3645 30.4021 24.8499 29.7231 24.8499H14.7624C14.0052 24.8499 13.2598 25.0376 12.5928 25.396L7.9165 27.9091V15.8045C7.9165 12.8146 10.2209 10.33 13.2022 10.1053L13.5243 10.0811Z" fill="black"/>
</g>
</g>
</svg>
