<svg width="24" height="25" viewBox="0 0 24 25" fill="none" xmlns="http://www.w3.org/2000/svg">
<path d="M8 9.99979C7.30964 9.99979 6.75 10.5594 6.75 11.2498C6.75 11.9401 7.30964 12.4998 8 12.4998C8.69036 12.4998 9.25 11.9401 9.25 11.2498C9.25 10.5594 8.69036 9.99979 8 9.99979Z" fill="white"/>
<path d="M12 9.99979C11.3096 9.99979 10.75 10.5594 10.75 11.2498C10.75 11.9401 11.3096 12.4998 12 12.4998C12.6904 12.4998 13.25 11.9401 13.25 11.2498C13.25 10.5594 12.6904 9.99979 12 9.99979Z" fill="white"/>
<path d="M14.75 11.2498C14.75 10.5594 15.3096 9.99979 16 9.99979C16.6904 9.99979 17.25 10.5594 17.25 11.2498C17.25 11.9401 16.6904 12.4998 16 12.4998C15.3096 12.4998 14.75 11.9401 14.75 11.2498Z" fill="white"/>
<path fill-rule="evenodd" clip-rule="evenodd" d="M16.1007 5.09258C13.4065 4.86283 10.6983 4.84949 8.00194 5.05271L7.80871 5.06728C5.23741 5.26107 3.25 7.4039 3.25 9.9825V18.4998C3.25 18.7637 3.38867 19.0081 3.61515 19.1435C3.84163 19.2789 4.12261 19.2854 4.35504 19.1604L8.26583 17.0587C8.44774 16.961 8.65104 16.9098 8.85756 16.9098H17.834C18.9661 16.9098 19.9362 16.1004 20.1392 14.9867C20.5505 12.7294 20.5829 10.4195 20.2353 8.15154L20.1329 7.48322C19.9464 6.26647 18.951 5.33565 17.7245 5.23106L16.1007 5.09258ZM8.11468 6.54847C10.731 6.35128 13.359 6.36421 15.9733 6.58716L17.597 6.72563C18.1334 6.77137 18.5686 7.17841 18.6502 7.71049L18.7526 8.37881C19.075 10.4821 19.0449 12.6244 18.6635 14.7178C18.5904 15.1185 18.2413 15.4098 17.834 15.4098H8.85756C8.40322 15.4098 7.95596 15.5224 7.55575 15.7374L4.75 17.2453V9.9825C4.75 8.1886 6.13262 6.69786 7.92144 6.56303L8.11468 6.54847Z" fill="white"/>
</svg>
