<svg width="35" height="35" viewBox="0 0 35 35" fill="none" xmlns="http://www.w3.org/2000/svg">
<g id="tabler:edit">
<g id="Group">
<path id="Vector" d="M10.2085 10.2083H8.75016C7.97661 10.2083 7.23475 10.5156 6.68777 11.0626C6.14079 11.6096 5.8335 12.3515 5.8335 13.125V26.25C5.8335 27.0235 6.14079 27.7654 6.68777 28.3124C7.23475 28.8594 7.97661 29.1667 8.75016 29.1667H21.8752C22.6487 29.1667 23.3906 28.8594 23.9376 28.3124C24.4845 27.7654 24.7918 27.0235 24.7918 26.25V24.7917" stroke="black" stroke-width="2" stroke-linecap="round" stroke-linejoin="round"/>
<path id="Vector_2" d="M23.3333 7.29167L27.7083 11.6667M29.7281 9.60312C30.3025 9.02877 30.6252 8.24977 30.6252 7.4375C30.6252 6.62523 30.3025 5.84623 29.7281 5.27187C29.1538 4.69752 28.3748 4.37484 27.5625 4.37484C26.7502 4.37484 25.9712 4.69752 25.3969 5.27187L13.125 17.5V21.875H17.5L29.7281 9.60312Z" stroke="black" stroke-width="2" stroke-linecap="round" stroke-linejoin="round"/>
</g>
</g>
</svg>
