<svg width="28" height="26" viewBox="0 0 28 26" fill="none" xmlns="http://www.w3.org/2000/svg">
<path d="M26.5 13V23C26.5 23.663 26.2366 24.2989 25.7678 24.7678C25.2989 25.2366 24.663 25.5 24 25.5H4C3.33696 25.5 2.70107 25.2366 2.23223 24.7678C1.76339 24.2989 1.5 23.663 1.5 23V13C1.16848 13 0.850537 12.8683 0.616116 12.6339C0.381696 12.3995 0.25 12.0815 0.25 11.75V8C0.25 7.33696 0.513392 6.70107 0.982233 6.23223C1.45107 5.76339 2.08696 5.5 2.75 5.5H6.7125C6.57123 5.09842 6.49937 4.67571 6.5 4.25C6.5 3.25544 6.89509 2.30161 7.59835 1.59835C8.30161 0.895088 9.25544 0.5 10.25 0.5C11.5 0.5 12.6 1.125 13.2875 2.05V2.0375L14 3L14.7125 2.0375V2.05C15.4 1.125 16.5 0.5 17.75 0.5C18.7446 0.5 19.6984 0.895088 20.4017 1.59835C21.1049 2.30161 21.5 3.25544 21.5 4.25C21.5006 4.67571 21.4288 5.09842 21.2875 5.5H25.25C25.913 5.5 26.5489 5.76339 27.0178 6.23223C27.4866 6.70107 27.75 7.33696 27.75 8V11.75C27.75 12.0815 27.6183 12.3995 27.3839 12.6339C27.1495 12.8683 26.8315 13 26.5 13ZM4 23H12.75V13H4V23ZM24 23V13H15.25V23H24ZM10.25 3C9.91848 3 9.60054 3.1317 9.36612 3.36612C9.1317 3.60054 9 3.91848 9 4.25C9 4.58152 9.1317 4.89946 9.36612 5.13388C9.60054 5.3683 9.91848 5.5 10.25 5.5C10.5815 5.5 10.8995 5.3683 11.1339 5.13388C11.3683 4.89946 11.5 4.58152 11.5 4.25C11.5 3.91848 11.3683 3.60054 11.1339 3.36612C10.8995 3.1317 10.5815 3 10.25 3ZM17.75 3C17.4185 3 17.1005 3.1317 16.8661 3.36612C16.6317 3.60054 16.5 3.91848 16.5 4.25C16.5 4.58152 16.6317 4.89946 16.8661 5.13388C17.1005 5.3683 17.4185 5.5 17.75 5.5C18.0815 5.5 18.3995 5.3683 18.6339 5.13388C18.8683 4.89946 19 4.58152 19 4.25C19 3.91848 18.8683 3.60054 18.6339 3.36612C18.3995 3.1317 18.0815 3 17.75 3ZM2.75 8V10.5H12.75V8H2.75ZM15.25 8V10.5H25.25V8H15.25Z" fill="black"/>
</svg>
