<svg width="45" height="45" viewBox="0 0 45 45" fill="none" xmlns="http://www.w3.org/2000/svg">
<path d="M15.75 9.84375C10.5359 9.84375 6.09375 13.7424 6.09375 18.8059C6.09375 22.2989 7.7294 25.2397 9.89717 27.6758C12.0575 30.1035 14.8446 32.1413 17.3643 33.8468L21.7117 36.7895C22.1878 37.1118 22.8122 37.1118 23.2883 36.7895L27.6357 33.8468C30.1554 32.1413 32.9425 30.1035 35.1028 27.6758C37.2706 25.2397 38.9062 22.2989 38.9062 18.8059C38.9062 13.7424 34.4641 9.84375 29.25 9.84375C26.5622 9.84375 24.1972 11.104 22.5 12.7347C20.8028 11.104 18.4378 9.84375 15.75 9.84375Z" fill="#ECEFF1"/>
</svg>
