<svg width="40" height="40" viewBox="0 0 40 40" fill="currentColor" xmlns="http://www.w3.org/2000/svg">
    <path d="M5.4165 16.7163C5.4165 12.2155 9.36507 8.75 13.9998 8.75C16.389 8.75 18.4912 9.87023 19.9998 11.3197C21.5084 9.87023 23.6107 8.75 25.9998 8.75C30.6346 8.75 34.5832 12.2155 34.5832 16.7163C34.5832 19.7994 33.2684 22.5107 31.4468 24.8026C29.6284 27.0904 27.2498 29.0322 24.9723 30.61C24.1024 31.2126 23.2224 31.7685 22.417 32.1787C21.6607 32.5638 20.7911 32.9167 19.9998 32.9167C19.2086 32.9167 18.339 32.5638 17.5827 32.1787C16.7773 31.7685 15.8973 31.2126 15.0274 30.61C12.7499 29.0322 10.3713 27.0904 8.55287 24.8026C6.7313 22.5107 5.4165 19.7994 5.4165 16.7163ZM13.9998 11.25C10.5344 11.25 7.9165 13.7985 7.9165 16.7163C7.9165 19.0555 8.90948 21.2333 10.51 23.247C12.1136 25.2647 14.2714 27.0449 16.4511 28.5549C17.2759 29.1263 18.0527 29.6125 18.7173 29.951C19.4309 30.3144 19.8443 30.4167 19.9998 30.4167C20.1554 30.4167 20.5688 30.3144 21.2824 29.9509C21.9469 29.6125 22.7238 29.1263 23.5486 28.5549C25.7283 27.0449 27.886 25.2647 29.4897 23.247C31.0902 21.2333 32.0832 19.0555 32.0832 16.7163C32.0832 13.7985 29.4653 11.25 25.9998 11.25C24.0096 11.25 22.1512 12.439 20.9908 13.9482C20.7542 14.2559 20.388 14.4363 19.9998 14.4363C19.6117 14.4363 19.2455 14.2559 19.0089 13.9482C17.8485 12.439 15.9901 11.25 13.9998 11.25Z" fill="#DE2600"/>
</svg>


