<svg width="19" height="24" viewBox="0 0 19 24" fill="none" xmlns="http://www.w3.org/2000/svg">
<g id="fontisto:intersex" clip-path="url(#clip0_121_2642)">
<path id="Vector" d="M13.7131 0.429V0.413C13.7131 0.185 13.8981 0 14.1261 0H14.1421H14.1411H18.0051C18.2391 0 18.4501 0.098 18.6001 0.254C18.6806 0.330768 18.7446 0.423104 18.7883 0.525392C18.8319 0.62768 18.8543 0.737782 18.8541 0.849V4.73C18.8541 4.83953 18.8106 4.94458 18.7331 5.02204C18.6557 5.09949 18.5506 5.143 18.4411 5.143H18.4241H17.5521C17.4426 5.143 17.3375 5.09949 17.2601 5.02204C17.1826 4.94458 17.1391 4.83953 17.1391 4.73V4.713V4.714V2.92L13.7351 6.335C14.83 7.67207 15.4267 9.34784 15.4231 11.076V11.146V11.142L15.4241 11.242C15.4267 13.1164 14.7193 14.9222 13.4441 16.296L13.4481 16.291C12.2061 17.7085 10.4746 18.6046 8.60011 18.8L8.56811 18.803V20.571H9.87011C10.0981 20.571 10.2831 20.756 10.2831 20.984V21.001V21.873C10.2831 21.9825 10.2396 22.0876 10.1621 22.165C10.0847 22.2425 9.97964 22.286 9.87011 22.286H9.85311H9.85411H8.56811V23.588C8.56811 23.6975 8.5246 23.8026 8.44715 23.88C8.36969 23.9575 8.26464 24.001 8.15511 24.001H8.13811H8.13911H7.26611C7.15658 24.001 7.05153 23.9575 6.97408 23.88C6.89662 23.8026 6.85311 23.6975 6.85311 23.588V23.571V23.572V22.286H5.55111C5.44158 22.286 5.33653 22.2425 5.25908 22.165C5.18162 22.0876 5.13811 21.9825 5.13811 21.873V21.856V20.984C5.13811 20.756 5.32311 20.571 5.55111 20.571H5.56811H6.85511V18.8C5.53853 18.6658 4.2811 18.1848 3.21111 17.406L3.23211 17.421C2.17106 16.6631 1.31869 15.6494 0.754111 14.474L0.734111 14.428C0.245374 13.4117 -0.00660714 12.2977 -0.00288913 11.17C-0.00288913 10.943 0.00711087 10.717 0.0271109 10.495L0.0251109 10.524C0.15026 8.73999 0.91096 7.05999 2.16911 5.789L2.16811 5.79C2.88528 5.04176 3.74663 4.44661 4.70018 4.04047C5.65372 3.63434 6.67968 3.42565 7.71611 3.427C8.48311 3.427 9.22411 3.539 9.92311 3.748L9.86911 3.734C10.8397 4.02409 11.745 4.49915 12.5351 5.133L12.5201 5.121L15.9351 1.719H14.1251C14.0156 1.719 13.9105 1.67549 13.8331 1.59804C13.7556 1.52058 13.7121 1.41553 13.7121 1.306V1.289L13.7131 0.429ZM7.71311 17.143L7.80011 17.144C8.57489 17.145 9.3419 16.9897 10.0553 16.6874C10.7687 16.3852 11.4138 15.9422 11.9521 15.385L11.9531 15.383C12.5107 14.8447 12.9541 14.1995 13.2567 13.4859C13.5592 12.7723 13.7148 12.0051 13.7141 11.23L13.7131 11.138V11.143L13.7141 11.056C13.7151 10.2812 13.5598 9.51421 13.2576 8.80082C12.9553 8.08742 12.5123 7.44229 11.9551 6.904L11.9531 6.903C10.8701 5.814 9.37011 5.141 7.71311 5.141C6.05611 5.141 4.55611 5.815 3.47311 6.903C2.90437 7.45209 2.45463 8.11228 2.15186 8.84256C1.84908 9.57283 1.69974 10.3576 1.71311 11.148V11.143L1.71211 11.23C1.71211 12.859 2.38611 14.331 3.47111 15.382L3.47311 15.383C4.01142 15.9406 4.65665 16.384 5.37022 16.6866C6.08379 16.9891 6.85104 17.1447 7.62611 17.144L7.71811 17.143H7.71311Z" fill="black"/>
</g>
<defs>
<clipPath id="clip0_121_2642">
<rect width="19" height="24" fill="white"/>
</clipPath>
</defs>
</svg>
