<svg width="40" height="40" viewBox="0 0 40 40" fill="none" xmlns="http://www.w3.org/2000/svg">
<g id="ion:language-sharp">
<path id="Vector" d="M28.3594 13.75L19.2188 36.25H22.9094L24.8227 31.7188H31.8961L33.8094 36.25H37.5L28.3594 13.75ZM26.2742 28.2812L28.3594 21.8633L30.4445 28.2812H26.2742ZM21.25 25C21.2305 24.9852 19.6414 23.768 17.7016 21.6664C20.7938 17.4758 22.5453 12.7125 23.2602 10.4688H27.5V7.03125H16.7188V3.75H13.2812V7.03125H2.5V10.4688H19.6289C18.8852 12.5742 17.5156 15.8984 15.4266 18.9344C12.8734 15.5406 11.7438 13.0063 11.7289 12.9797L11.1719 11.875L8.20312 13.5938L8.73984 14.6766C8.80938 14.7984 10.0828 17.6375 13.0141 21.4398C13.0859 21.5344 13.1586 21.6266 13.2312 21.7188C9.34688 26.1609 6.26641 27.8977 6.22656 27.9273L5 28.75L6.79688 31.5625L8.30469 30.6664C8.47656 30.5359 11.5336 28.7914 15.4922 24.3555C17.4078 26.4086 18.8687 27.5453 18.9531 27.6109L19.9219 28.2812L21.25 25Z" fill="#DE2600"/>
</g>
</svg>
