<svg width="24" height="24" viewBox="0 0 24 24" fill="none" xmlns="http://www.w3.org/2000/svg">
<path d="M10.4998 16C10.4998 15.1716 11.1714 14.5 11.9998 14.5C12.8282 14.5 13.4998 15.1716 13.4998 16C13.4998 16.8284 12.8282 17.5 11.9998 17.5C11.1714 17.5 10.4998 16.8284 10.4998 16Z" fill="#777777"/>
<path fill-rule="evenodd" clip-rule="evenodd" d="M7.62147 10.5971L7.30603 7.75816C7.26559 7.39418 7.26559 7.02684 7.30603 6.66286L7.32879 6.45796C7.57028 4.28457 9.27888 2.56492 11.4507 2.30941C11.8155 2.26649 12.1841 2.26649 12.5489 2.30941C14.7207 2.56492 16.4293 4.28458 16.6708 6.45797L16.6936 6.66286C16.734 7.02684 16.734 7.39418 16.6936 7.75815L16.3781 10.5971L17.0647 10.6519C18.1474 10.7384 19.0316 11.5523 19.2071 12.6242C19.5731 14.8598 19.5731 17.1401 19.2071 19.3758C19.0316 20.4477 18.1474 21.2616 17.0647 21.348L15.5686 21.4675C13.1932 21.6571 10.8065 21.6571 8.4311 21.4675L6.93497 21.348C5.85224 21.2616 4.96814 20.4477 4.79262 19.3758C4.42655 17.1401 4.42655 14.8598 4.79262 12.6242C4.96814 11.5523 5.85224 10.7384 6.93497 10.6519L7.62147 10.5971ZM11.6259 3.79914C11.8743 3.76992 12.1253 3.76992 12.3737 3.79914C13.8523 3.97309 15.0156 5.1439 15.18 6.62361L15.2027 6.82851C15.2309 7.08239 15.2309 7.33862 15.2027 7.59251L14.8816 10.483C12.9624 10.3594 11.0372 10.3594 9.11801 10.483L8.79685 7.59251C8.76864 7.33862 8.76864 7.08239 8.79685 6.82851L8.81962 6.62361C8.98403 5.1439 10.1473 3.97309 11.6259 3.79914ZM15.4492 12.0277C13.1533 11.8445 10.8464 11.8445 8.55047 12.0277L7.05434 12.1472C6.65941 12.1787 6.33693 12.4756 6.27291 12.8666C5.93312 14.9417 5.93312 17.0583 6.27291 19.1334C6.33693 19.5244 6.65941 19.8213 7.05434 19.8528L8.55047 19.9722C10.8464 20.1555 13.1533 20.1555 15.4492 19.9722L16.9454 19.8528C17.3403 19.8213 17.6628 19.5244 17.7268 19.1334C18.0666 17.0583 18.0666 14.9417 17.7268 12.8666C17.6628 12.4756 17.3403 12.1787 16.9454 12.1472L15.4492 12.0277Z" fill="#777777"/>
</svg>
