<svg width="24" height="24" viewBox="0 0 24 24" fill="none" xmlns="http://www.w3.org/2000/svg">
<path fill-rule="evenodd" clip-rule="evenodd" d="M2.80354 8.3533C2.5234 10.9562 2.53589 13.9582 2.92571 16.5505C3.14141 17.9849 4.31208 19.0845 5.75715 19.2102L7.26738 19.3414C10.4164 19.6152 13.5833 19.6152 16.7323 19.3414L18.2426 19.2102C19.6876 19.0845 20.8583 17.9849 21.074 16.5505C21.4638 13.9582 21.4763 10.9564 21.1962 8.35345C21.16 8.05169 21.1192 7.75034 21.074 7.44949C20.8583 6.0151 19.6876 4.91545 18.2426 4.78983L16.7323 4.65855C13.5833 4.38481 10.4164 4.38481 7.26738 4.65855L5.75715 4.78983C4.31208 4.91545 3.14141 6.0151 2.92571 7.44949C2.88048 7.75028 2.83975 8.05159 2.80354 8.3533ZM7.39728 6.15292C10.4599 5.88669 13.5398 5.88669 16.6024 6.15292L18.1127 6.2842C18.867 6.34977 19.4781 6.92379 19.5907 7.67254C19.6024 7.7503 19.6137 7.82809 19.6248 7.90592L14.0638 10.9954C12.7802 11.7085 11.2194 11.7085 9.93584 10.9954L4.3749 7.90596C4.38596 7.82812 4.39734 7.75031 4.40903 7.67254C4.52163 6.92379 5.13272 6.34977 5.88705 6.2842L7.39728 6.15292ZM19.8084 9.51989C20.0023 11.7876 19.9298 14.0725 19.5907 16.3274C19.4781 17.0762 18.867 17.6502 18.1127 17.7158L16.6024 17.8471C13.5398 18.1133 10.4599 18.1133 7.39728 17.8471L5.88705 17.7158C5.13272 17.6502 4.52163 17.0762 4.40903 16.3274C4.06994 14.0725 3.99738 11.7877 4.19135 9.51992L9.20737 12.3066C10.944 13.2714 13.0556 13.2714 14.7923 12.3066L19.8084 9.51989Z" fill="#777777"/>
</svg>
