<svg width="40" height="40" viewBox="0 0 40 40" fill="none" xmlns="http://www.w3.org/2000/svg">
<g id="tabler:mail">
<g id="Group">
<path id="Vector" d="M5 11.6667C5 10.7826 5.35119 9.93476 5.97631 9.30964C6.60143 8.68452 7.44928 8.33333 8.33333 8.33333H31.6667C32.5507 8.33333 33.3986 8.68452 34.0237 9.30964C34.6488 9.93476 35 10.7826 35 11.6667V28.3333C35 29.2174 34.6488 30.0652 34.0237 30.6904C33.3986 31.3155 32.5507 31.6667 31.6667 31.6667H8.33333C7.44928 31.6667 6.60143 31.3155 5.97631 30.6904C5.35119 30.0652 5 29.2174 5 28.3333V11.6667Z" stroke="#DE2600" stroke-width="3" stroke-linecap="round" stroke-linejoin="round"/>
<path id="Vector_2" d="M5 11.6667L20 21.6667L35 11.6667" stroke="#DE2600" stroke-width="3" stroke-linecap="round" stroke-linejoin="round"/>
</g>
</g>
</svg>
