<svg width="24" height="24" viewBox="0 0 24 24" fill="none" xmlns="http://www.w3.org/2000/svg">
<g id="streamline:nature-ecology-rose-flower-rose-plant-tree">
<g id="Group">
<path id="Vector" d="M11.9999 7.02872C14.7382 5.06642 18.0648 4.09867 21.4284 4.28586V10.2859C21.4284 12.7865 20.4351 15.1847 18.6669 16.9529C16.8987 18.7211 14.5005 19.7144 11.9999 19.7144C9.49925 19.7144 7.10105 18.7211 5.33285 16.9529C3.56465 15.1847 2.57129 12.7865 2.57129 10.2859V4.28586C2.57129 4.28586 13.817 2.93158 18.9599 16.6459" stroke="black" stroke-linecap="round" stroke-linejoin="round"/>
<path id="Vector_2" d="M16.9884 4.73147C16.7097 3.61945 16.0674 2.63242 15.1636 1.92717C14.2598 1.22191 13.1462 0.838867 11.9998 0.838867C10.8534 0.838867 9.73983 1.22191 8.83601 1.92717C7.93219 2.63242 7.28993 3.61945 7.01123 4.73147M11.9998 19.7143V23.1429" stroke="black" stroke-linecap="round" stroke-linejoin="round"/>
</g>
</g>
</svg>
