<svg width="24" height="25" viewBox="0 0 24 25" fill="none" xmlns="http://www.w3.org/2000/svg">
<path d="M6.4288 2.91309C6.70116 2.60101 6.66896 2.12723 6.35689 1.85487C6.04481 1.58251 5.57103 1.6147 5.29867 1.92678L4.00686 3.40695C3.2741 4.24655 2.85987 5.31707 2.83663 6.43122L2.77995 9.14888C2.77131 9.563 3.10003 9.90572 3.51415 9.91436C3.92827 9.92299 4.27099 9.59428 4.27963 9.18016L4.3363 6.4625C4.3522 5.70018 4.63562 4.96773 5.13699 4.39326L6.4288 2.91309Z" fill="white"/>
<path fill-rule="evenodd" clip-rule="evenodd" d="M6.237 8.20087C6.3759 5.98013 8.21749 4.25012 10.4426 4.25012H11V3.50012C11 2.94784 11.4477 2.50012 12 2.50012C12.5523 2.50012 13 2.94784 13 3.50012V4.25012H13.5574C15.7825 4.25012 17.6241 5.98013 17.763 8.20087L17.984 11.7343C18.0682 13.0815 18.5205 14.3798 19.2916 15.4877C19.9882 16.4888 19.368 17.8713 18.1571 18.0166L14.75 18.4255V19.5001C14.75 21.0189 13.5188 22.2501 12 22.2501C10.4812 22.2501 9.24998 21.0189 9.24998 19.5001V18.4255L5.84285 18.0166C4.63192 17.8713 4.0117 16.4888 4.70839 15.4877C5.47945 14.3798 5.93173 13.0815 6.016 11.7343L6.237 8.20087ZM10.4426 5.75012C9.00956 5.75012 7.82353 6.86429 7.73407 8.2945L7.51307 11.828C7.41168 13.4491 6.86742 15.0113 5.93957 16.3445C5.88922 16.4169 5.93405 16.5168 6.02157 16.5273L9.75923 16.9759C11.2477 17.1545 12.7522 17.1545 14.2407 16.9759L17.9784 16.5273C18.0659 16.5168 18.1107 16.4169 18.0604 16.3445C17.1325 15.0113 16.5883 13.4491 16.4869 11.828L16.2659 8.2945C16.1764 6.86429 14.9904 5.75012 13.5574 5.75012H10.4426ZM12 20.7501C11.3096 20.7501 10.75 20.1905 10.75 19.5001V18.7501H13.25V19.5001C13.25 20.1905 12.6903 20.7501 12 20.7501Z" fill="white"/>
<path d="M17.6431 1.85487C17.331 2.12723 17.2988 2.60101 17.5712 2.91309L18.863 4.39326C19.3643 4.96773 19.6478 5.70018 19.6637 6.4625L19.7203 9.18016C19.729 9.59428 20.0717 9.92299 20.4858 9.91436C20.8999 9.90572 21.2287 9.563 21.22 9.14888L21.1633 6.43122C21.1401 5.31707 20.7259 4.24655 19.9931 3.40695L18.7013 1.92678C18.4289 1.6147 17.9552 1.58251 17.6431 1.85487Z" fill="white"/>
</svg>
