<svg width="43" height="40" viewBox="0 0 43 40" fill="none" xmlns="http://www.w3.org/2000/svg">
<g id="formkit:people">
<path id="Vector" d="M21.4997 17.5C19.599 17.5 17.7761 16.8415 16.4321 15.6694C15.0881 14.4973 14.333 12.9076 14.333 11.25C14.333 9.5924 15.0881 8.00269 16.4321 6.83058C17.7761 5.65848 19.599 5 21.4997 5C23.4004 5 25.2233 5.65848 26.5673 6.83058C27.9113 8.00269 28.6663 9.5924 28.6663 11.25C28.6663 12.9076 27.9113 14.4973 26.5673 15.6694C25.2233 16.8415 23.4004 17.5 21.4997 17.5ZM21.4997 7.5C19.1203 7.5 17.1997 9.175 17.1997 11.25C17.1997 13.325 19.1203 15 21.4997 15C23.879 15 25.7997 13.325 25.7997 11.25C25.7997 9.175 23.879 7.5 21.4997 7.5Z" fill="#DE2600"/>
<path id="Vector_2" d="M38.7 27.5C37.8973 27.5 37.2667 26.95 37.2667 26.25C37.2667 25.55 37.8973 25 38.7 25C39.5027 25 40.1333 24.45 40.1333 23.75C40.1333 22.0924 39.3783 20.5027 38.0343 19.3306C36.6903 18.1585 34.8674 17.5 32.9667 17.5H30.1C29.2973 17.5 28.6667 16.95 28.6667 16.25C28.6667 15.55 29.2973 15 30.1 15C32.4793 15 34.4 13.325 34.4 11.25C34.4 9.175 32.4793 7.5 30.1 7.5C29.2973 7.5 28.6667 6.95 28.6667 6.25C28.6667 5.55 29.2973 5 30.1 5C32.0007 5 33.8236 5.65848 35.1676 6.83058C36.5116 8.00269 37.2667 9.5924 37.2667 11.25C37.2667 12.8 36.636 14.2 35.5467 15.3C39.818 16.3 43 19.7 43 23.75C43 25.825 41.0793 27.5 38.7 27.5ZM4.3 27.5C1.92067 27.5 0 25.825 0 23.75C0 19.7 3.15333 16.3 7.45333 15.3C6.39267 14.2 5.73333 12.8 5.73333 11.25C5.73333 9.5924 6.48839 8.00269 7.8324 6.83058C9.17641 5.65848 10.9993 5 12.9 5C13.7027 5 14.3333 5.55 14.3333 6.25C14.3333 6.95 13.7027 7.5 12.9 7.5C10.5207 7.5 8.6 9.175 8.6 11.25C8.6 13.325 10.5207 15 12.9 15C13.7027 15 14.3333 15.55 14.3333 16.25C14.3333 16.95 13.7027 17.5 12.9 17.5H10.0333C8.13262 17.5 6.30975 18.1585 4.96573 19.3306C3.62172 20.5027 2.86667 22.0924 2.86667 23.75C2.86667 24.45 3.49733 25 4.3 25C5.10267 25 5.73333 25.55 5.73333 26.25C5.73333 26.95 5.10267 27.5 4.3 27.5ZM30.1 35H12.9C10.5207 35 8.6 33.325 8.6 31.25V28.75C8.6 23.925 13.1007 20 18.6333 20H24.3667C29.8993 20 34.4 23.925 34.4 28.75V31.25C34.4 33.325 32.4793 35 30.1 35ZM18.6333 22.5C16.7326 22.5 14.9097 23.1585 13.5657 24.3306C12.2217 25.5027 11.4667 27.0924 11.4667 28.75V31.25C11.4667 31.95 12.0973 32.5 12.9 32.5H30.1C30.9027 32.5 31.5333 31.95 31.5333 31.25V28.75C31.5333 27.0924 30.7783 25.5027 29.4343 24.3306C28.0903 23.1585 26.2674 22.5 24.3667 22.5H18.6333Z" fill="#DE2600"/>
</g>
</svg>
