<svg width="35" height="35" viewBox="0 0 35 35" fill="none" xmlns="http://www.w3.org/2000/svg">
<g id="material-symbols:settings-outline">
<path id="Vector" d="M13.4896 32.0833L12.9063 27.4167C12.5903 27.2951 12.2923 27.1493 12.0123 26.9792C11.7323 26.809 11.4591 26.6267 11.1927 26.4323L6.85417 28.2552L2.84375 21.3281L6.59896 18.4844C6.57465 18.3142 6.5625 18.1499 6.5625 17.9915V17.0085C6.5625 16.8501 6.57465 16.6858 6.59896 16.5156L2.84375 13.6719L6.85417 6.7448L11.1927 8.56771C11.4601 8.37327 11.7396 8.19098 12.0313 8.02084C12.3229 7.8507 12.6146 7.70487 12.9063 7.58334L13.4896 2.91667H21.5104L22.0938 7.58334C22.4097 7.70487 22.7077 7.8507 22.9877 8.02084C23.2677 8.19098 23.5409 8.37327 23.8073 8.56771L28.1458 6.7448L32.1562 13.6719L28.401 16.5156C28.4253 16.6858 28.4375 16.8501 28.4375 17.0085V17.9915C28.4375 18.1499 28.4132 18.3142 28.3646 18.4844L32.1198 21.3281L28.1094 28.2552L23.8073 26.4323C23.5399 26.6267 23.2604 26.809 22.9688 26.9792C22.6771 27.1493 22.3854 27.2951 22.0938 27.4167L21.5104 32.0833H13.4896ZM17.5729 22.6042C18.9826 22.6042 20.1858 22.1059 21.1823 21.1094C22.1788 20.1129 22.6771 18.9097 22.6771 17.5C22.6771 16.0903 22.1788 14.8872 21.1823 13.8906C20.1858 12.8941 18.9826 12.3958 17.5729 12.3958C16.1389 12.3958 14.9294 12.8941 13.9446 13.8906C12.9597 14.8872 12.4678 16.0903 12.4688 17.5C12.4688 18.9097 12.9607 20.1129 13.9446 21.1094C14.9285 22.1059 16.1379 22.6042 17.5729 22.6042ZM17.5729 19.6875C16.9653 19.6875 16.4485 19.4746 16.0227 19.0488C15.5969 18.6229 15.3844 18.1067 15.3854 17.5C15.3854 16.8924 15.5983 16.3756 16.0242 15.9498C16.45 15.524 16.9663 15.3115 17.5729 15.3125C18.1806 15.3125 18.6973 15.5254 19.1231 15.9513C19.549 16.3771 19.7614 16.8933 19.7604 17.5C19.7604 18.1076 19.5475 18.6244 19.1217 19.0502C18.6958 19.476 18.1796 19.6885 17.5729 19.6875ZM16.0417 29.1667H18.9219L19.4323 25.3021C20.1858 25.1076 20.8848 24.8218 21.5294 24.4446C22.174 24.0674 22.7631 23.6119 23.2969 23.0781L26.9062 24.5729L28.3281 22.0938L25.1927 19.724C25.3142 19.3837 25.3993 19.0254 25.4479 18.6492C25.4965 18.2729 25.5208 17.8899 25.5208 17.5C25.5208 17.1111 25.4965 16.7285 25.4479 16.3523C25.3993 15.976 25.3142 15.6173 25.1927 15.276L28.3281 12.9063L26.9062 10.4271L23.2969 11.9583C22.7622 11.3993 22.173 10.9317 21.5294 10.5554C20.8858 10.1792 20.1867 9.89334 19.4323 9.69792L18.9583 5.83334H16.0781L15.5677 9.69792C14.8142 9.89237 14.1157 10.1782 13.4721 10.5554C12.8285 10.9326 12.2388 11.3881 11.7031 11.9219L8.09375 10.4271L6.67187 12.9063L9.80729 15.2396C9.68576 15.6042 9.6007 15.9688 9.55208 16.3333C9.50347 16.6979 9.47917 17.0868 9.47917 17.5C9.47917 17.8889 9.50347 18.2656 9.55208 18.6302C9.6007 18.9948 9.68576 19.3594 9.80729 19.724L6.67187 22.0938L8.09375 24.5729L11.7031 23.0417C12.2378 23.6007 12.8275 24.0688 13.4721 24.446C14.1167 24.8233 14.8152 25.1086 15.5677 25.3021L16.0417 29.1667Z" fill="black"/>
</g>
</svg>
