<svg width="101" height="97" viewBox="0 0 101 97" fill="none" xmlns="http://www.w3.org/2000/svg">
<g id="Shield">
<g id="Bg">
<path id="Fill 1" d="M50.6069 62.1569C50.2946 62.3365 49.9412 62.445 49.5756 62.4626L37.7959 63.0291C34.4525 63.1885 31.5765 62.8635 29.0002 62.0396C23.3633 60.2392 18.6329 56.4871 15.6838 51.469L5.97076 34.9561C4.84936 33.0505 5.10075 30.6167 6.58942 28.8984L19.9264 13.5505C20.7135 12.6309 21.8151 11.9908 23.0188 11.7492L42.9807 7.68532C45.2134 7.22746 47.4683 8.20358 48.5857 10.1082L58.3058 26.6333C61.2533 31.6426 62.2275 37.581 61.0517 43.355C60.5119 46.0037 59.387 48.659 57.6163 51.4735L51.3761 61.4108C51.1835 61.7208 50.9177 61.9748 50.6069 62.1569Z" fill="url(#paint0_linear_303_224)"/>
<g id="Fill 2" filter="url(#filter0_f_303_224)">
<path d="M45.3978 52.3185C45.186 52.4403 44.9499 52.52 44.7092 52.5443L36.9524 53.3291C34.7509 53.5509 32.8744 53.4582 31.2134 53.0482C27.5791 52.1525 24.613 50.0254 22.864 47.0554L17.1031 37.2822C16.4379 36.1544 16.694 34.6515 17.7359 33.5418L27.068 23.6284C27.6192 23.0348 28.3665 22.6012 29.1661 22.4082L42.4266 19.1737C43.91 18.8099 45.3542 19.3252 46.0168 20.4526L51.7819 30.2329C53.5301 33.1977 53.9478 36.8058 52.9598 40.3927C52.5063 42.0382 51.6682 43.7094 50.4002 45.5023L45.9308 51.8321C45.7927 52.0295 45.6087 52.1952 45.3978 52.3185Z" fill="#F34853"/>
</g>
</g>
<g id="Icon">
<g id="Fill 1_2" filter="url(#filter1_b_303_224)">
<mask id="path-3-outside-1_303_224" maskUnits="userSpaceOnUse" x="22.9028" y="8.6498" width="79.4592" height="89.3283" fill="black">
<rect fill="white" x="22.9028" y="8.6498" width="79.4592" height="89.3283"/>
<path d="M57.0113 91.0835C56.5376 91.0112 56.0808 90.8303 55.6875 90.5444L43.0144 81.3306C39.4186 78.714 36.7121 75.9806 34.7334 72.9755C30.402 66.4029 28.6423 58.5464 29.7865 50.8503L33.5426 25.5183C33.9755 22.5946 36.272 20.2619 39.2513 19.7064L65.9034 14.7781C67.488 14.4728 69.1642 14.7212 70.613 15.4709L94.6854 27.8427C97.3807 29.223 98.8992 32.1195 98.4631 35.0389L94.704 60.3896C93.5654 68.0751 89.6062 75.0884 83.558 80.1403C80.783 82.4573 77.3964 84.2943 73.2081 85.7599L58.4321 90.9446C57.9732 91.108 57.4855 91.1521 57.0113 91.0835Z"/>
</mask>
<path d="M57.0113 91.0835C56.5376 91.0112 56.0808 90.8303 55.6875 90.5444L43.0144 81.3306C39.4186 78.714 36.7121 75.9806 34.7334 72.9755C30.402 66.4029 28.6423 58.5464 29.7865 50.8503L33.5426 25.5183C33.9755 22.5946 36.272 20.2619 39.2513 19.7064L65.9034 14.7781C67.488 14.4728 69.1642 14.7212 70.613 15.4709L94.6854 27.8427C97.3807 29.223 98.8992 32.1195 98.4631 35.0389L94.704 60.3896C93.5654 68.0751 89.6062 75.0884 83.558 80.1403C80.783 82.4573 77.3964 84.2943 73.2081 85.7599L58.4321 90.9446C57.9732 91.108 57.4855 91.1521 57.0113 91.0835Z" fill="#F5878C" fill-opacity="0.32"/>
<path d="M56.8583 92.0718C57.4042 92.1552 57.9153 91.7803 57.9998 91.2346C58.0843 90.6888 57.7102 90.1787 57.1642 90.0953L56.8583 92.0718ZM55.6875 90.5444L56.277 89.7356L56.277 89.7356L55.6875 90.5444ZM43.0144 81.3306L42.4246 82.1392L42.4249 82.1394L43.0144 81.3306ZM34.7334 72.9755L35.5693 72.4249L35.5691 72.4245L34.7334 72.9755ZM29.7865 50.8503L30.7759 50.9954L30.7759 50.995L29.7865 50.8503ZM33.5426 25.5183L34.5321 25.6631L34.5321 25.6629L33.5426 25.5183ZM39.2513 19.7064L39.0711 18.7234L39.0696 18.7236L39.2513 19.7064ZM65.9034 14.7781L66.0836 15.7612L66.091 15.7597L65.9034 14.7781ZM70.613 15.4709L70.1518 16.3588L70.1542 16.3601L70.613 15.4709ZM94.6854 27.8427L94.2266 28.7319L94.2279 28.7326L94.6854 27.8427ZM98.4631 35.0389L97.4737 34.8931L97.4736 34.8942L98.4631 35.0389ZM94.704 60.3896L93.7145 60.2449L93.7145 60.245L94.704 60.3896ZM83.558 80.1403L84.1984 80.9069L84.1986 80.9068L83.558 80.1403ZM73.2081 85.7599L72.8791 84.8165L72.8783 84.8168L73.2081 85.7599ZM58.4321 90.9446L58.1023 90.0014L58.0979 90.0029L58.4321 90.9446ZM57.1564 90.0941C56.6098 90.015 56.1017 90.3939 56.0215 90.9403C55.9414 91.4867 56.3195 91.9938 56.8661 92.0729L57.1564 90.0941ZM57.1642 90.0953C56.8405 90.0458 56.5349 89.9231 56.277 89.7356L55.098 91.3532C55.6267 91.7376 56.2348 91.9765 56.8583 92.0718L57.1642 90.0953ZM56.277 89.7356L43.6038 80.5218L42.4249 82.1394L55.0981 91.3532L56.277 89.7356ZM43.6042 80.5221C40.0837 77.9602 37.4689 75.3097 35.5693 72.4249L33.8975 73.5261C35.9553 76.6514 38.7536 79.4678 42.4246 82.1392L43.6042 80.5221ZM35.5691 72.4245C31.3708 66.0538 29.6685 58.4445 30.7759 50.9954L28.797 50.7052C27.6162 58.6483 29.4333 66.752 33.8977 73.5265L35.5691 72.4245ZM30.7759 50.995L34.5321 25.6631L32.5531 25.3736L28.797 50.7056L30.7759 50.995ZM34.5321 25.6629C34.9001 23.1779 36.8583 21.1692 39.4329 20.6891L39.0696 18.7236C35.6858 19.3546 33.051 22.0114 32.5531 25.3738L34.5321 25.6629ZM39.4315 20.6894L66.0836 15.7611L65.7233 13.7951L39.0711 18.7234L39.4315 20.6894ZM66.091 15.7597C67.4507 15.4977 68.8987 15.7104 70.1518 16.3588L71.0742 14.5829C69.4297 13.732 67.5253 13.4478 65.7158 13.7965L66.091 15.7597ZM70.1542 16.3601L94.2266 28.7319L95.1442 26.9535L71.0718 14.5816L70.1542 16.3601ZM94.2279 28.7326C96.555 29.9243 97.8445 32.4119 97.4737 34.8931L99.4524 35.1847C99.954 31.8272 98.2065 28.5218 95.143 26.9528L94.2279 28.7326ZM97.4736 34.8942L93.7145 60.2449L95.6935 60.5343L99.4525 35.1836L97.4736 34.8942ZM93.7145 60.245C92.6125 67.6838 88.7798 74.477 82.9173 79.3737L84.1986 80.9068C90.4326 75.6998 94.5184 68.4663 95.6935 60.5342L93.7145 60.245ZM82.9175 79.3736C80.2535 81.5979 76.9793 83.3817 72.8791 84.8165L73.5371 86.7034C77.8136 85.2069 81.3124 83.3167 84.1984 80.9069L82.9175 79.3736ZM72.8783 84.8168L58.1023 90.0014L58.7619 91.8878L73.5379 86.7031L72.8783 84.8168ZM58.0979 90.0029C57.7973 90.11 57.4744 90.1401 57.1564 90.0941L56.8661 92.0729C57.4965 92.1641 58.1491 92.106 58.7662 91.8862L58.0979 90.0029Z" fill="url(#paint1_linear_303_224)" mask="url(#path-3-outside-1_303_224)"/>
</g>
<g id="Fill 4" filter="url(#filter2_bd_303_224)">
<path d="M58.6085 61.3522C57.8685 61.2429 57.1701 60.8644 56.6847 60.2312L50.4403 52.0784C49.4771 50.8131 49.74 49.0383 51.031 48.1098C52.3226 47.1776 54.1537 47.4458 55.1214 48.708L59.6149 54.5714L74.4586 43.874C75.754 42.9424 77.5852 43.2106 78.549 44.4722C79.516 45.738 79.2525 47.5166 77.9621 48.4413L60.7751 60.8293C60.127 61.297 59.3486 61.4614 58.6085 61.3522Z" fill="url(#paint2_linear_303_224)"/>
<path d="M51.0895 48.1908L51.0893 48.1909C49.8444 49.0863 49.5906 50.7968 50.5198 52.0176C50.5198 52.0177 50.5199 52.0177 50.5199 52.0178L56.7641 60.1703C57.2328 60.7816 57.9072 61.1476 58.6233 61.2533C59.3391 61.3589 60.0909 61.1999 60.7166 60.7483L60.7166 60.7483L77.9037 48.3603L77.9039 48.3601C79.148 47.4685 79.4025 45.7544 78.4694 44.5329C77.5386 43.3146 75.7686 43.055 74.517 43.9551L51.0895 48.1908ZM51.0895 48.1908C52.3371 47.2903 54.1071 47.5496 55.0419 48.7688L59.5354 54.6323L59.5944 54.7093L59.6733 54.6525L74.5169 43.9551L51.0895 48.1908Z" stroke="url(#paint3_linear_303_224)" stroke-opacity="0.5" stroke-width="0.2"/>
</g>
</g>
</g>
<defs>
<filter id="filter0_f_303_224" x="0.736328" y="3.05811" width="68.748" height="66.3882" filterUnits="userSpaceOnUse" color-interpolation-filters="sRGB">
<feFlood flood-opacity="0" result="BackgroundImageFix"/>
<feBlend mode="normal" in="SourceGraphic" in2="BackgroundImageFix" result="shape"/>
<feGaussianBlur stdDeviation="8" result="effect1_foregroundBlur_303_224"/>
</filter>
<filter id="filter1_b_303_224" x="4.44531" y="-10.3491" width="119.093" height="126.463" filterUnits="userSpaceOnUse" color-interpolation-filters="sRGB">
<feFlood flood-opacity="0" result="BackgroundImageFix"/>
<feGaussianBlur in="BackgroundImageFix" stdDeviation="12"/>
<feComposite in2="SourceAlpha" operator="in" result="effect1_backgroundBlur_303_224"/>
<feBlend mode="normal" in="SourceGraphic" in2="effect1_backgroundBlur_303_224" result="shape"/>
</filter>
<filter id="filter2_bd_303_224" x="34.8604" y="28.3188" width="59.2715" height="48.0659" filterUnits="userSpaceOnUse" color-interpolation-filters="sRGB">
<feFlood flood-opacity="0" result="BackgroundImageFix"/>
<feGaussianBlur in="BackgroundImageFix" stdDeviation="7.5"/>
<feComposite in2="SourceAlpha" operator="in" result="effect1_backgroundBlur_303_224"/>
<feColorMatrix in="SourceAlpha" type="matrix" values="0 0 0 0 0 0 0 0 0 0 0 0 0 0 0 0 0 0 127 0" result="hardAlpha"/>
<feOffset dx="5" dy="5"/>
<feGaussianBlur stdDeviation="5"/>
<feColorMatrix type="matrix" values="0 0 0 0 0.94902 0 0 0 0 0.376471 0 0 0 0 0.407843 0 0 0 0.54 0"/>
<feBlend mode="normal" in2="effect1_backgroundBlur_303_224" result="effect2_dropShadow_303_224"/>
<feBlend mode="normal" in="SourceGraphic" in2="effect2_dropShadow_303_224" result="shape"/>
</filter>
<linearGradient id="paint0_linear_303_224" x1="42.8698" y1="-5.26766e-05" x2="27.846" y2="56.2628" gradientUnits="userSpaceOnUse">
<stop stop-color="#FAA1A5"/>
<stop offset="1" stop-color="#ED6368"/>
</linearGradient>
<linearGradient id="paint1_linear_303_224" x1="44.9524" y1="20.2568" x2="86.5543" y2="80.3066" gradientUnits="userSpaceOnUse">
<stop stop-color="white" stop-opacity="0.25"/>
<stop offset="1" stop-color="white" stop-opacity="0"/>
</linearGradient>
<linearGradient id="paint2_linear_303_224" x1="76.9803" y1="47.1523" x2="45.5822" y2="43.7302" gradientUnits="userSpaceOnUse">
<stop stop-color="white"/>
<stop offset="1" stop-color="white" stop-opacity="0.2"/>
</linearGradient>
<linearGradient id="paint3_linear_303_224" x1="53.4748" y1="46.7753" x2="77.2358" y2="50.6395" gradientUnits="userSpaceOnUse">
<stop stop-color="white"/>
<stop offset="1" stop-color="white" stop-opacity="0"/>
</linearGradient>
</defs>
</svg>
