<svg width="102" height="97" viewBox="0 0 102 97" fill="none" xmlns="http://www.w3.org/2000/svg">
<g id="Tick">
<g id="Bg">
<path id="Path" d="M86.3036 11.5548L58.9479 4.21338C49.0253 1.55045 41.6913 5.81906 39.0238 15.7899L29.9893 49.5601C27.278 59.6944 31.5336 66.9332 41.4562 69.5961L68.8118 76.9376C78.8944 79.6434 86.0302 75.4618 88.7415 65.3274L97.776 31.5573C100.443 21.5864 96.3862 14.2607 86.3036 11.5548Z" fill="url(#paint0_linear_303_183)"/>
<g id="Path_2" opacity="0.5" filter="url(#filter0_f_303_183)">
<path d="M79.1555 20.8026L60.5178 15.8008C53.7574 13.9865 48.7606 16.8948 46.9433 23.688L40.788 46.696C38.9408 53.6006 41.8401 58.5324 48.6005 60.3467L67.2381 65.3485C74.1075 67.192 78.9692 64.343 80.8164 57.4384L86.9717 34.4304C88.7891 27.6372 86.0248 22.6461 79.1555 20.8026Z" fill="#61BC81"/>
</g>
</g>
<g id="icon">
<g id="Fill 1" filter="url(#filter1_b_303_183)">
<mask id="path-3-outside-1_303_183" maskUnits="userSpaceOnUse" x="0" y="17.1191" width="80" height="80" fill="black">
<rect fill="white" y="17.1191" width="80" height="80"/>
<path d="M56.753 18.1191H23.0446C9.86449 18.1191 1 27.387 1 41.1719V72.9862C1 86.7321 9.86449 95.9999 23.0446 95.9999H56.753C69.9331 95.9999 78.7587 86.7321 78.7587 72.9862V41.1719C78.7587 27.387 69.9331 18.1191 56.753 18.1191Z"/>
</mask>
<path d="M56.753 18.1191H23.0446C9.86449 18.1191 1 27.387 1 41.1719V72.9862C1 86.7321 9.86449 95.9999 23.0446 95.9999H56.753C69.9331 95.9999 78.7587 86.7321 78.7587 72.9862V41.1719C78.7587 27.387 69.9331 18.1191 56.753 18.1191Z" fill="#9CECB8" fill-opacity="0.51"/>
<path d="M56.753 19.1191C57.3052 19.1191 57.753 18.6714 57.753 18.1191C57.753 17.5669 57.3052 17.1191 56.753 17.1191V19.1191ZM56.753 17.1191C56.2007 17.1191 55.753 17.5669 55.753 18.1191C55.753 18.6714 56.2007 19.1191 56.753 19.1191V17.1191ZM56.753 17.1191H23.0446V19.1191H56.753V17.1191ZM23.0446 17.1191C16.2113 17.1191 10.4289 19.5272 6.35704 23.785C2.28889 28.0389 0 34.0631 0 41.1719H2C2 34.4957 4.14335 28.9935 7.80247 25.1673C11.4579 21.345 16.6978 19.1191 23.0446 19.1191V17.1191ZM0 41.1719V72.9862H2V41.1719H0ZM0 72.9862C0 80.0762 2.28934 86.0906 6.35746 90.3394C10.4292 94.5919 16.2113 96.9999 23.0446 96.9999V94.9999C16.6978 94.9999 11.4576 92.774 7.80205 88.9562C4.1429 85.1346 2 79.6421 2 72.9862H0ZM23.0446 96.9999H56.753V94.9999H23.0446V96.9999ZM56.753 96.9999C63.5864 96.9999 69.3593 94.5918 73.4215 90.3385C77.4798 86.0893 79.7587 80.075 79.7587 72.9862H77.7587C77.7587 79.6433 75.6247 85.1359 71.9752 88.9571C68.3296 92.7742 63.0996 94.9999 56.753 94.9999V96.9999ZM79.7587 72.9862V41.1719H77.7587V72.9862H79.7587ZM79.7587 41.1719C79.7587 34.0643 77.4803 28.0403 73.4219 23.7859C69.3596 19.5274 63.5865 17.1191 56.753 17.1191V19.1191C63.0995 19.1191 68.3293 21.3448 71.9748 25.1664C75.6243 28.9922 77.7587 34.4945 77.7587 41.1719H79.7587Z" fill="url(#paint1_linear_303_183)" mask="url(#path-3-outside-1_303_183)"/>
</g>
<g id="Fill 4" filter="url(#filter2_bd_303_183)">
<mask id="path-5-inside-2_303_183" fill="white">
<path d="M35.2647 69.7073C34.3938 69.7073 33.5229 69.3763 32.8581 68.7104L23.632 59.4699C22.3023 58.1381 22.3023 55.9808 23.632 54.6529C24.9617 53.3212 27.1117 53.3173 28.4414 54.649L35.2647 61.4831L51.3141 45.4085C52.6438 44.0767 54.7938 44.0767 56.1235 45.4085C57.4532 46.7403 57.4532 48.8975 56.1235 50.2293L37.6714 68.7104C37.0065 69.3763 36.1356 69.7073 35.2647 69.7073Z"/>
</mask>
<path d="M35.2647 69.7073C34.3938 69.7073 33.5229 69.3763 32.8581 68.7104L23.632 59.4699C22.3023 58.1381 22.3023 55.9808 23.632 54.6529C24.9617 53.3212 27.1117 53.3173 28.4414 54.649L35.2647 61.4831L51.3141 45.4085C52.6438 44.0767 54.7938 44.0767 56.1235 45.4085C57.4532 46.7403 57.4532 48.8975 56.1235 50.2293L37.6714 68.7104C37.0065 69.3763 36.1356 69.7073 35.2647 69.7073Z" fill="url(#paint2_linear_303_183)"/>
<path d="M23.632 54.6529L23.7733 54.7945L23.7736 54.7943L23.632 54.6529ZM35.2647 61.4831L35.1232 61.6244L35.2647 61.7662L35.4063 61.6244L35.2647 61.4831ZM56.1235 50.2293L55.982 50.088L56.1235 50.2293ZM37.6714 68.7104L37.8129 68.8517L37.6714 68.7104ZM35.2647 69.5073C34.4445 69.5073 33.6253 69.1958 32.9996 68.5691L32.7166 68.8517C33.4206 69.5568 34.3431 69.9073 35.2647 69.9073V69.5073ZM32.9996 68.5691L23.7736 59.3286L23.4905 59.6112L32.7166 68.8517L32.9996 68.5691ZM23.7736 59.3286C22.5217 58.0748 22.522 56.0441 23.7733 54.7945L23.4907 54.5114C22.0827 55.9175 22.083 58.2015 23.4905 59.6112L23.7736 59.3286ZM23.7736 54.7943C25.0254 53.5404 27.0486 53.5371 28.2999 54.7904L28.5829 54.5077C27.1748 53.0974 24.898 53.1019 23.4905 54.5116L23.7736 54.7943ZM28.2999 54.7904L35.1232 61.6244L35.4063 61.3418L28.5829 54.5077L28.2999 54.7904ZM35.4063 61.6244L51.4556 45.5498L51.1726 45.2672L35.1232 61.3418L35.4063 61.6244ZM51.4556 45.5498C52.7072 44.2963 54.7304 44.2963 55.982 45.5498L56.265 45.2672C54.8572 43.8572 52.5804 43.8572 51.1726 45.2672L51.4556 45.5498ZM55.982 45.5498C57.2337 46.8035 57.2337 48.8343 55.982 50.088L56.265 50.3706C57.6726 48.9608 57.6726 46.677 56.265 45.2672L55.982 45.5498ZM55.982 50.088L37.5298 68.5691L37.8129 68.8517L56.265 50.3706L55.982 50.088ZM37.5298 68.5691C36.9041 69.1958 36.0849 69.5073 35.2647 69.5073V69.9073C36.1863 69.9073 37.1089 69.5568 37.8129 68.8517L37.5298 68.5691Z" fill="url(#paint3_linear_303_183)" fill-opacity="0.5" mask="url(#path-5-inside-2_303_183)"/>
</g>
</g>
</g>
<defs>
<filter id="filter0_f_303_183" x="26.2422" y="1.27197" width="75.2744" height="78.6245" filterUnits="userSpaceOnUse" color-interpolation-filters="sRGB">
<feFlood flood-opacity="0" result="BackgroundImageFix"/>
<feBlend mode="normal" in="SourceGraphic" in2="BackgroundImageFix" result="shape"/>
<feGaussianBlur stdDeviation="7" result="effect1_foregroundBlur_303_183"/>
</filter>
<filter id="filter1_b_303_183" x="-24" y="-6.88086" width="127.759" height="127.881" filterUnits="userSpaceOnUse" color-interpolation-filters="sRGB">
<feFlood flood-opacity="0" result="BackgroundImageFix"/>
<feGaussianBlur in="BackgroundImageFix" stdDeviation="12"/>
<feComposite in2="SourceAlpha" operator="in" result="effect1_backgroundBlur_303_183"/>
<feBlend mode="normal" in="SourceGraphic" in2="effect1_backgroundBlur_303_183" result="shape"/>
</filter>
<filter id="filter2_bd_303_183" x="7.63477" y="29.4097" width="64.4863" height="55.2979" filterUnits="userSpaceOnUse" color-interpolation-filters="sRGB">
<feFlood flood-opacity="0" result="BackgroundImageFix"/>
<feGaussianBlur in="BackgroundImageFix" stdDeviation="7.5"/>
<feComposite in2="SourceAlpha" operator="in" result="effect1_backgroundBlur_303_183"/>
<feColorMatrix in="SourceAlpha" type="matrix" values="0 0 0 0 0 0 0 0 0 0 0 0 0 0 0 0 0 0 127 0" result="hardAlpha"/>
<feOffset dx="5" dy="5"/>
<feGaussianBlur stdDeviation="5"/>
<feColorMatrix type="matrix" values="0 0 0 0 0.454902 0 0 0 0 0.807843 0 0 0 0 0.576471 0 0 0 0.67 0"/>
<feBlend mode="normal" in2="effect1_backgroundBlur_303_183" result="effect2_dropShadow_303_183"/>
<feBlend mode="normal" in="SourceGraphic" in2="effect2_dropShadow_303_183" result="shape"/>
</filter>
<linearGradient id="paint0_linear_303_183" x1="102" y1="15.7673" x2="42.2919" y2="52.2532" gradientUnits="userSpaceOnUse">
<stop stop-color="#93EDB2"/>
<stop offset="1" stop-color="#61BC81"/>
</linearGradient>
<linearGradient id="paint1_linear_303_183" x1="13.3779" y1="27.1924" x2="63.0739" y2="88.6456" gradientUnits="userSpaceOnUse">
<stop stop-color="white" stop-opacity="0.25"/>
<stop offset="1" stop-color="white" stop-opacity="0"/>
</linearGradient>
<linearGradient id="paint2_linear_303_183" x1="54.6757" y1="48.9779" x2="16.2966" y2="50.6837" gradientUnits="userSpaceOnUse">
<stop stop-color="white"/>
<stop offset="1" stop-color="white" stop-opacity="0.2"/>
</linearGradient>
<linearGradient id="paint3_linear_303_183" x1="26.3497" y1="52.8958" x2="55.6323" y2="53.1162" gradientUnits="userSpaceOnUse">
<stop stop-color="white"/>
<stop offset="1" stop-color="white" stop-opacity="0"/>
</linearGradient>
</defs>
</svg>
