<svg width="24" height="25" viewBox="0 0 24 25" fill="none" xmlns="http://www.w3.org/2000/svg">
<g id="ri:video-fill">
<path id="Vector" d="M3 4.0345C3 3.4865 3.445 3.0415 3.993 3.0415H20.007C20.555 3.0415 21 3.4865 21 4.0345V20.0485C20.9997 20.3118 20.895 20.5642 20.7089 20.7504C20.5227 20.9365 20.2703 21.0412 20.007 21.0415H3.993C3.72964 21.0415 3.47707 20.9369 3.29084 20.7507C3.10462 20.5644 3 20.3119 3 20.0485V4.0345ZM10.622 8.4565C10.5618 8.41635 10.4919 8.39327 10.4196 8.38972C10.3473 8.38618 10.2755 8.4023 10.2116 8.43637C10.1478 8.47043 10.0944 8.52117 10.0572 8.58319C10.0199 8.6452 10.0001 8.71615 10 8.7885V15.2945C10.0001 15.3669 10.0199 15.4378 10.0572 15.4998C10.0944 15.5618 10.1478 15.6126 10.2116 15.6466C10.2755 15.6807 10.3473 15.6968 10.4196 15.6933C10.4919 15.6897 10.5618 15.6667 10.622 15.6265L15.501 12.3745C15.5557 12.3378 15.6004 12.2883 15.6314 12.2302C15.6624 12.1721 15.6786 12.1073 15.6786 12.0415C15.6786 11.9757 15.6624 11.9109 15.6314 11.8528C15.6004 11.7947 15.5557 11.7452 15.501 11.7085L10.622 8.4565Z" fill="white"/>
</g>
</svg>
